# xmcd
#
# Track frame offsets: 
#        150
#        21545
#        41940
#        60415
#        82140
#        96685
#        117525
#        150410
#        168405
#        185190
#        204695
#        220680
#        240980
#        262675
#        285975
#        302555
#
# Disc length: 4296 seconds
#
# Revision: 0
# Processed by: cddbd v1.5.2PL0 Copyright (c) Steve Scherf et al.
# Submitted via: ExactAudioCopyFreeDBPlugin 1.0
#
DISCID=e410c610
DTITLE=群星 - STE20试机34号
DYEAR=2008
DGENRE=STE
TTITLE0=偷偷想你
TTITLE1=感激我遇见
TTITLE2=黙默无言
TTITLE3=温哥华伤心一号
TTITLE4=天各一方
TTITLE5=天下浪子不独你一人
TTITLE6=想你想得好寂寞
TTITLE7=你是明日意义
TTITLE8=有缘的话
TTITLE9=片段
TTITLE10=无可奉吿
TTITLE11=迟来的爱
TTITLE12=留给最爱的说话
TTITLE13=旧居中的钢琴
TTITLE14=忘了我是谁
TTITLE15=一天一天等下去
EXTD=
EXTT0=
EXTT1=
EXTT2=
EXTT3=
EXTT4=
EXTT5=
EXTT6=
EXTT7=
EXTT8=
EXTT9=
EXTT10=
EXTT11=
EXTT12=
EXTT13=
EXTT14=
EXTT15=
PLAYORDER=
